<svg id="Слой_1" xmlns="http://www.w3.org/2000/svg" viewBox="0 0 139.942 136.425"><style>.st0,.st1{stroke:#fff}.st0{stroke-miterlimit:22.9256;fill:#3d7648;stroke-width:.9422}.st1{fill:#fff;stroke-width:.8612}.st1,.st2,.st3,.st4{stroke-miterlimit:22.9256}.st2{fill:#fff;stroke-width:.6273;stroke:#3d7648}.st3,.st4{stroke:#fff}.st3{fill:#3d7648;stroke-width:.8734}.st4{stroke-width:.7954}.st4,.st5{fill:#3d7648}.st6{fill:#fff;stroke:#201600;stroke-width:.5684;stroke-miterlimit:22.9256}.st7{fill:#201600}.st10,.st8,.st9{stroke-miterlimit:22.9256}.st8{fill:#201600;stroke-width:.284;stroke:#fff}.st10,.st9{stroke:#201600}.st9{fill:none;stroke-linecap:round;stroke-linejoin:round;stroke-width:1.1367}.st10{stroke-width:.5652}.st10,.st11{fill:#fff}.st12,.st13{fill:none;stroke-miterlimit:22.9256}.st12{stroke:#fff;stroke-width:1.1367}.st13{stroke-width:.5684}.st13,.st14,.st15{stroke:#201600}.st14{stroke-miterlimit:22.9256;fill:none;stroke-width:.284}.st15{fill:#fff;stroke-width:.559}.st15,.st16,.st17,.st18{stroke-miterlimit:22.9256}.st16{stroke:#201600;stroke-width:.284;fill:#fff}.st17,.st18{fill:none}.st17{stroke-linecap:round;stroke-linejoin:round;stroke:#201600;stroke-width:.5684}.st18{stroke:#3d7648;stroke-width:.6273}</style><path class="st0" d="M139.471 68.258c.01 37.413-31.095 67.72-69.482 67.696C31.602 135.93.481 105.583.471 68.171.461 30.756 31.567.446 69.954.471c38.387.024 69.508 30.373 69.517 67.787z"/><path class="st1" d="M133.503 68.255c.01 34.198-28.427 61.901-63.516 61.879-35.088-.022-63.535-27.762-63.544-61.959C6.433 33.974 34.867 6.27 69.955 6.293c35.09.021 63.54 27.76 63.548 61.962z"/><path class="st2" d="M131.893 68.254c.01 33.331-27.705 60.335-61.906 60.315-34.2-.023-61.929-27.062-61.937-60.393C8.04 34.841 35.755 7.84 69.956 7.861c34.2.022 61.929 27.058 61.937 60.393z"/><path class="st3" d="M82.333 121.02c0 2.232-5.528 4.043-12.347 4.039-6.82-.005-12.347-1.822-12.348-4.053 0-2.24 5.527-4.046 12.346-4.042s12.348 1.819 12.349 4.057v-.001zM59.707 12.027c-1.672.61-3.089 1.417-4.081 2.35-.998.913.25 3.195 1.538 3.061 1.316-.1 2.793-.474 4.34-.983 1.537-.567 2.926-1.177 4.024-1.935 1.106-.699 1.931-1.5 2.303-2.295-.725-.531-1.903-.915-3.336-.963-1.433-.061-3.113.18-4.788.765zm8.154 4.892c1.24.332 2.186.944 2.693 1.61-.494.716-1.373 1.29-2.472 1.79-1.109.486-2.441.849-3.906 1.053-1.34.195-2.7.213-4.044.053-1.187-.164-1.868-2.645-.776-3.322 1.087-.694 2.529-1.184 4.132-1.422 1.613-.227 3.138-.11 4.373.238zm-1.458 6.093c1.052.542 1.809 1.223 2.17 1.963-.496.648-1.318 1.098-2.33 1.436-1.013.322-2.217.493-3.54.473-1.316.006-2.582-.231-3.654-.548-1.08-.342-1.46-2.862-.378-3.384a9.045 9.045 0 0 1 3.886-.78c1.458-.014 2.81.364 3.846.84z"/><path class="st3" d="M53.953 27.628c2.312-1.02-3.917-11.816-.963-12.944 1.936-1.04 3.965-1.937 6.05-2.774-3.103.86 2.47 14.544.12 15.316-1.722.012-3.452.173-5.206.402h-.001z"/><path class="st3" d="M45.689 16.54c-1.458.997-2.623 2.126-3.345 3.268-.739 1.12 1.056 3.03 2.269 2.596 1.244-.432 2.59-1.132 3.95-2.009 1.347-.918 2.531-1.852 3.406-2.853.892-.945 1.49-1.917 1.647-2.777-.838-.341-2.082-.431-3.484-.126-1.404.282-2.963.935-4.443 1.901zm9.157 2.763c1.282.025 2.35.385 3.012.908-.296.813-.999 1.583-1.94 2.332-.95.736-2.145 1.413-3.508 1.963-1.248.52-2.561.868-3.903 1.034-1.197.125-2.492-2.11-1.597-3.028.871-.93 2.138-1.76 3.634-2.383 1.505-.604 3.014-.867 4.302-.826zm.14 6.256c1.15.265 2.057.748 2.599 1.378-.321.749-1.001 1.38-1.892 1.954-.898.552-2.013 1.02-3.304 1.315a12.76 12.76 0 0 1-3.679.357c-1.137-.071-2.142-2.424-1.23-3.182.904-.738 2.139-1.376 3.566-1.704a9.142 9.142 0 0 1 3.94-.118z"/><path class="st3" d="M44.096 33.047c2-1.522-6.806-10.513-4.224-12.305 1.606-1.478 3.344-2.837 5.146-4.147-2.79 1.573 6.108 13.48 4.032 14.803-1.669.432-3.304 1.012-4.954 1.649z"/><path class="st3" d="M33.28 24.3c-1.171 1.307-1.99 2.697-2.414 3.967-.438 1.256 1.783 2.679 2.863 1.973a18.375 18.375 0 0 0 3.31-2.903c1.083-1.195 1.971-2.414 2.576-3.574.607-1.153.957-2.216.887-3.09-.9-.133-2.135.074-3.401.719-1.294.604-2.633 1.622-3.82 2.907l-.001.001zm9.563.472c1.241-.303 2.382-.195 3.15.15-.078.858-.572 1.762-1.28 2.731-.741.93-1.71 1.896-2.905 2.743a14.545 14.545 0 0 1-3.517 1.947c-1.134.405-2.952-1.455-2.316-2.553.614-1.105 1.625-2.221 2.916-3.184 1.31-.933 2.693-1.574 3.953-1.834h-.001zm1.734 6.03c1.169-.045 2.187.232 2.87.702-.123.798-.626 1.568-1.338 2.351a10.778 10.778 0 0 1-2.872 2.074 12.61 12.61 0 0 1-3.483 1.231c-1.125.199-2.691-1.837-1.985-2.786.67-.945 1.728-1.83 3.017-2.515 1.284-.68 2.626-1.01 3.791-1.056v-.001z"/><path class="st3" d="M35.918 40.682c1.54-1.964-9.234-8.543-7.206-10.915a53.629 53.629 0 0 1 3.936-5.25c-2.33 2.166 9.351 11.62 7.647 13.371a43.333 43.333 0 0 0-4.377 2.794z"/><path class="st3" d="M23.232 34.802c-.824 1.534-1.237 3.099-1.35 4.416-.075 1.345 2.388 2.16 3.273 1.23a17.262 17.262 0 0 0 2.472-3.612 17.359 17.359 0 0 0 1.605-4.075c.28-1.28.362-2.38.075-3.211-.926.072-2.035.594-3.115 1.508-1.102.896-2.147 2.203-2.96 3.744zm9.38-1.843c1.137-.579 2.236-.779 3.09-.609.123.833-.097 1.854-.554 2.953a14.487 14.487 0 0 1-2.116 3.361c-.932 1.116-1.92 2.055-2.929 2.723-.972.678-3.203-.686-2.888-1.92.337-1.203 1.007-2.55 2.034-3.777 1.023-1.225 2.2-2.178 3.363-2.73v-.001zm3.205 5.433c1.108-.337 2.173-.306 2.958-.007.063.786-.202 1.68-.703 2.597a11.312 11.312 0 0 1-2.257 2.706c-.992.859-2.025 1.56-3.073 2.018-1.005.481-3.088-1.144-2.629-2.219.42-1.08 1.222-2.187 2.28-3.165 1.103-.952 2.29-1.62 3.424-1.93z"/><path class="st3" d="M29.927 50.047c.97-2.288-11.093-6.051-9.758-8.853.72-2.029 1.527-4.063 2.5-6.037-1.72 2.655 12.015 9.033 10.775 11.124-1.21 1.18-2.418 2.42-3.518 3.766h.001z"/><path class="st3" d="M16.145 47.406a11.46 11.46 0 0 0-.19 4.612c.276 1.32 2.885 1.518 3.487.395.603-1.142 1.113-2.538 1.479-4.096.352-1.42.526-2.877.518-4.34-.038-1.302-.277-2.408-.74-3.133-.892.282-1.805 1.074-2.643 2.213a12.007 12.007 0 0 0-1.91 4.349h-.001zm8.617-4.054c.977-.822 1.956-1.3 2.841-1.334.315.772.393 1.834.209 2.997-.173 1.17-.595 2.452-1.193 3.77-.63 1.299-1.335 2.456-2.147 3.342-.762.893-3.273.112-3.283-1.16.028-1.245.315-2.72 1.01-4.153.655-1.45 1.6-2.636 2.563-3.462zm4.483 4.498c1.002-.586 2.003-.832 2.857-.72.25.736.256 1.686-.022 2.684-.247 1.01-.783 2.079-1.488 3.162-.753 1.064-1.558 2.003-2.463 2.696-.85.712-3.266-.358-3.115-1.515.144-1.14.613-2.419 1.413-3.615.822-1.185 1.792-2.125 2.818-2.692z"/><path class="st3" d="M26.514 60.553c.337-2.453-12.275-3.161-11.718-6.206.188-2.143.452-4.306.89-6.46-.973 3 13.926 5.846 13.278 8.173-.881 1.43-1.731 2.924-2.45 4.493z"/><path class="st3" d="M12.49 61.342c.026 1.553.364 3.085.995 4.504.606 1.213 3.175.776 3.478-.458.298-1.25.427-2.726.393-4.326a18.041 18.041 0 0 0-.613-4.329c-.353-1.246-.892-2.266-1.522-2.856-.8.491-1.452 1.486-1.993 2.787a12.248 12.248 0 0 0-.739 4.678h.001zm7.305-6.019c.755-1.028 1.565-1.736 2.412-1.982.504.67.867 1.687.964 2.853.156 1.179.052 2.52-.181 3.939-.29 1.412-.664 2.704-1.224 3.76-.513 1.053-3.143.9-3.48-.329a10.045 10.045 0 0 1-.08-4.263 10.13 10.13 0 0 1 1.589-3.978zm5.5 3.27c.834-.807 1.72-1.294 2.58-1.392.422.654.693 1.575.662 2.604.025 1.044-.227 2.204-.633 3.428-.462 1.216-.99 2.324-1.699 3.213-.64.9-3.254.447-3.4-.714-.147-1.142-.025-2.496.447-3.846.491-1.348 1.183-2.495 2.043-3.293z"/><path class="st3" d="M25.875 71.582c-.278-2.462-12.697-.128-12.915-3.207-.37-2.112-.656-4.27-.789-6.46-.172 3.138 14.978 2.288 14.94 4.707-.487 1.606-.931 3.263-1.236 4.96z"/><path class="st3" d="M12.48 75.697a11.864 11.864 0 0 0 2.096 4.137c.895 1.031 3.266-.008 3.26-1.279-.039-1.284-.263-2.748-.717-4.286-.41-1.538-1.04-2.923-1.673-4.05-.669-1.121-1.434-1.978-2.196-2.396-.65.666-1.039 1.783-1.225 3.17-.144 1.383-.06 3.04.455 4.704zm5.564-7.577c.472-1.177 1.076-2.056 1.832-2.5.659.528 1.273 1.425 1.666 2.534.436 1.108.68 2.431.815 3.865.08 1.44.039 2.781-.251 3.94-.23 1.14-2.816 1.624-3.456.515a10.348 10.348 0 0 1-1.14-4.12 10.039 10.039 0 0 1 .534-4.234zm6.154 1.849c.596-.982 1.345-1.668 2.151-1.972.577.535 1.062 1.368 1.302 2.375.277 1.006.325 2.197.247 3.48-.132 1.289-.38 2.486-.84 3.52-.394 1.02-3.055 1.212-3.474.118-.442-1.068-.643-2.413-.54-3.834.147-1.428.529-2.705 1.154-3.687z"/><path class="st3" d="M28.036 82.412c-.893-2.316-12.34 2.948-13.324.007-.895-1.966-1.72-3.995-2.392-6.087.605 3.089 15.1-1.36 15.657.993-.062 1.666-.077 3.374.059 5.087z"/><path class="st3" d="M16.116 89.643c.87 1.51 2.016 2.69 3.087 3.501 1.125.782 3.169-.805 2.822-2.027-.357-1.237-.961-2.598-1.784-3.983a17.962 17.962 0 0 0-2.657-3.523c-.938-.928-1.886-1.578-2.734-1.8-.453.8-.56 1.986-.38 3.377a12.03 12.03 0 0 0 1.646 4.455zm3.461-8.695c.148-1.253.52-2.253 1.143-2.863.766.353 1.579 1.078 2.25 2.055.693.97 1.283 2.19 1.768 3.546.444 1.373.74 2.687.763 3.875.07 1.163-2.311 2.258-3.209 1.336a10.41 10.41 0 0 1-2.168-3.713c-.533-1.499-.668-2.993-.547-4.236zm6.423.31c.324-1.095.885-1.936 1.587-2.424.696.376 1.368 1.064 1.862 1.979.524.905.873 2.042 1.123 3.304.195 1.28.262 2.502.085 3.61-.122 1.084-2.639 1.911-3.335.958-.693-.926-1.245-2.177-1.497-3.582-.23-1.413-.18-2.745.175-3.844v-.001z"/><path class="st3" d="M32.892 92.38c-1.472-2.021-11.187 5.839-12.91 3.238-1.355-1.693-2.679-3.454-3.863-5.318 1.383 2.84 14.264-4.98 15.417-2.842.363 1.632.779 3.294 1.356 4.921v.001z"/><path class="st3" d="M23.183 102.27c1.242 1.243 2.625 2.131 3.885 2.635 1.272.502 2.882-1.55 2.213-2.632-.643-1.13-1.594-2.287-2.728-3.437-1.143-1.139-2.357-2.08-3.475-2.76-1.13-.684-2.24-1.072-3.112-1.081-.24.886-.021 2.05.489 3.361a12.736 12.736 0 0 0 2.729 3.913l-.001.001zm1.138-9.258c-.167-1.256-.066-2.311.377-3.054.835.154 1.814.66 2.7 1.448.936.765 1.806 1.809 2.625 3.009.781 1.22 1.393 2.428 1.733 3.565.353 1.117-1.675 2.752-2.771 2.07a10.327 10.327 0 0 1-3.046-3.069 10.19 10.19 0 0 1-1.618-3.969zm6.306-1.26c.047-1.145.352-2.091.913-2.735.765.201 1.613.695 2.306 1.472.747.75 1.38 1.76 1.934 2.934.533 1.183.877 2.374 1.01 3.477.144 1.092-2.057 2.475-2.996 1.744a8.967 8.967 0 0 1-2.354-3.123c-.598-1.306-.873-2.622-.813-3.77v.001z"/><path class="st3" d="M40.132 100.88c-1.931-1.613-9.38 8.363-11.68 6.234a58.276 58.276 0 0 1-5.098-4.206c2.079 2.398 12.537-8.26 14.222-6.483a40.4 40.4 0 0 0 2.556 4.455z"/><path class="st3" d="M33.222 112.799c1.534.886 3.071 1.445 4.435 1.618 1.354.188 2.393-2.194 1.483-3.088-.914-.93-2.133-1.822-3.516-2.668-1.414-.815-2.785-1.473-4.073-1.841-1.257-.393-2.42-.513-3.285-.296.028.884.482 2.006 1.332 3.133.858 1.118 2.103 2.241 3.624 3.142zm-1.234-9.247c-.492-1.167-.627-2.242-.411-3.05.876-.072 1.912.21 2.983.752 1.1.522 2.215 1.313 3.302 2.289a14.66 14.66 0 0 1 2.59 3.035c.617 1.004-.938 3.079-2.166 2.67-1.229-.389-2.534-1.169-3.73-2.239-1.197-1.073-2.057-2.315-2.568-3.457zm5.782-2.733c-.233-1.133-.165-2.126.198-2.869.825-.025 1.722.299 2.61.865.905.559 1.796 1.37 2.616 2.386a12.24 12.24 0 0 1 1.863 3.12c.409 1.036-1.373 2.9-2.466 2.406a8.79 8.79 0 0 1-3.069-2.459 8.53 8.53 0 0 1-1.752-3.449z"/><path class="st3" d="M49.29 107.382c-2.255-1.132-6.986 10.383-9.733 8.841-2.045-.818-4.036-1.792-6.01-2.846 2.632 1.813 10.05-10.996 12.148-9.7 1.097 1.3 2.316 2.51 3.595 3.705z"/><path class="st3" d="M45.618 120.602c1.713.485 3.348.652 4.715.494 1.358-.138 1.757-2.698.648-3.356a19.337 19.337 0 0 0-4.088-1.734c-1.57-.46-3.069-.754-4.41-.803-1.323-.074-2.467.072-3.254.492.252.844.952 1.862 2.083 2.717 1.106.896 2.612 1.663 4.306 2.19zm-3.537-8.681c-.793-.983-1.168-2.03-1.162-2.856.832-.288 1.883-.226 3.08.007 1.317.303 2.585.788 3.768 1.44 1.304.67 2.41 1.493 3.28 2.31.843.836-.129 3.218-1.42 3.112-1.292-.083-2.75-.523-4.19-1.264-1.418-.774-2.584-1.743-3.355-2.75l-.001.001zm4.913-4.03c-.52-1.033-.693-2.034-.533-2.835.8-.229 1.726-.094 2.75.211 1.005.341 2.082.885 3.125 1.69.99.72 1.866 1.585 2.596 2.568.652.913-.597 3.147-1.773 2.922-1.165-.2-2.432-.776-3.597-1.636-1.175-.854-2.038-1.913-2.568-2.92z"/><path class="st3" d="M59.803 111.468c-2.467-.57-4.11 11.75-7.167 10.915-2.195-.29-4.375-.757-6.551-1.314 3.001 1.158 6.95-13.09 9.3-12.324 1.393.99 2.876 1.871 4.418 2.723z"/><path class="st3" d="M59.626 125.154c1.783.068 3.408-.179 4.69-.66 1.28-.46 1.017-3.039-.227-3.408-1.435-.4-2.912-.63-4.401-.687-1.638-.071-3.172.028-4.476.285-1.313.276-2.37.662-3.03 1.263.457.778 1.403 1.573 2.713 2.136 1.298.605 2.958.978 4.731 1.07v.001zm-5.643-7.553c-1.018-.756-1.654-1.67-1.856-2.484.734-.469 1.77-.673 2.989-.735a14.91 14.91 0 0 1 4.013.481c1.316.305 2.582.792 3.764 1.446 1.034.602.697 3.15-.578 3.357-1.27.23-2.797.164-4.379-.211-1.571-.411-2.947-1.055-3.953-1.854zm3.732-5.096c-.773-.845-1.186-1.803-1.239-2.614.715-.401 1.647-.515 2.715-.462 1.055.093 2.243.356 3.456.877a12.69 12.69 0 0 1 3.169 1.862c.866.729.23 3.193-.97 3.26-1.18.09-2.551-.166-3.905-.704-1.35-.554-2.461-1.353-3.227-2.22l.001.001zM75.422 11.27c-1.43.045-2.614.427-3.336.958.372.795 1.198 1.598 2.3 2.298 1.103.76 2.489 1.37 4.026 1.94 1.55.51 3.025.886 4.344.988 1.289.136 2.536-2.145 1.537-3.06-.997-.933-2.414-1.742-4.08-2.354-1.68-.587-3.36-.831-4.79-.77h-.001zm1.005 5.419c1.608.24 3.05.732 4.131 1.426 1.096.68.42 3.16-.77 3.322-1.198.14-2.59.16-4.045-.058-1.465-.206-2.794-.57-3.9-1.059-1.106-.5-1.985-1.075-2.476-1.791.506-.666 1.45-1.276 2.688-1.607 1.233-.346 2.76-.462 4.372-.233zm.938 5.492a9.07 9.07 0 0 1 3.887.786c1.078.522.704 3.043-.38 3.383-1.07.315-2.337.55-3.65.543-1.327.018-2.527-.155-3.544-.478-1.008-.338-1.83-.79-2.332-1.438.362-.74 1.118-1.42 2.168-1.96 1.042-.475 2.386-.852 3.851-.836z"/><path class="st3" d="M80.759 27.24c-2.347-.775 3.222-14.451.113-15.316 2.088.84 4.117 1.74 6.054 2.782 2.958 1.132-3.27 11.919-.957 12.942-1.755-.23-3.485-.395-5.21-.409v.001z"/><path class="st3" d="M89.78 14.665c-1.399-.308-2.644-.22-3.48.12.16.86.757 1.833 1.65 2.78.873 1.001 2.057 1.938 3.403 2.857 1.367.88 2.712 1.58 3.95 2.014 1.22.436 3.011-1.473 2.27-2.594-.72-1.142-1.884-2.272-3.345-3.271-1.48-.968-3.04-1.623-4.449-1.906h.001zm-.405 5.488c1.496.625 2.762 1.457 3.636 2.388.89.919-.4 3.153-1.597 3.026a14.938 14.938 0 0 1-3.903-1.04c-1.364-.55-2.558-1.23-3.51-1.967-.938-.75-1.644-1.52-1.937-2.334.658-.522 1.726-.88 3.011-.904 1.285-.039 2.794.226 4.3.83v.001zm-.499 5.547c1.43.33 2.665.97 3.565 1.71.914.759-.09 3.11-1.227 3.18a12.759 12.759 0 0 1-3.68-.362c-1.291-.296-2.406-.766-3.303-1.319-.893-.575-1.574-1.208-1.892-1.957.539-.629 1.447-1.11 2.599-1.374a9.136 9.136 0 0 1 3.938.122z"/><path class="st3" d="M90.877 31.424c-2.08-1.325 6.813-13.221 4.019-14.797 1.81 1.312 3.547 2.673 5.153 4.153 2.58 1.794-6.22 10.775-4.22 12.299-1.65-.64-3.285-1.22-4.952-1.655z"/><path class="st3" d="M102.822 21.433c-1.273-.646-2.507-.855-3.403-.723-.068.874.278 1.937.887 3.09.608 1.162 1.494 2.381 2.58 3.579a18.56 18.56 0 0 0 3.308 2.907c1.077.706 3.301-.713 2.863-1.97-.426-1.27-1.245-2.662-2.418-3.97-1.184-1.287-2.526-2.307-3.817-2.913zm-1.788 5.212c1.288.965 2.3 2.082 2.917 3.188.634 1.1-1.183 2.956-2.314 2.55a14.54 14.54 0 0 1-3.52-1.952 14.206 14.206 0 0 1-2.904-2.746c-.712-.97-1.207-1.874-1.285-2.733.772-.344 1.908-.45 3.146-.146 1.266.262 2.646.904 3.96 1.839zm-1.895 5.25c1.285.686 2.348 1.574 3.021 2.52.703.95-.859 2.983-1.986 2.784a12.615 12.615 0 0 1-3.485-1.237 10.917 10.917 0 0 1-2.877-2.077c-.705-.783-1.212-1.554-1.332-2.352.68-.47 1.698-.746 2.867-.698 1.165.046 2.504.379 3.792 1.06z"/><path class="st3" d="M99.636 37.925c-1.709-1.753 9.969-11.192 7.635-13.36a53.692 53.692 0 0 1 3.94 5.254c2.03 2.375-8.741 8.94-7.197 10.906a44.239 44.239 0 0 0-4.378-2.8z"/><path class="st3" d="M113.735 31.113c-1.084-.916-2.19-1.438-3.119-1.512-.287.831-.204 1.93.077 3.211a17.67 17.67 0 0 0 1.607 4.078 17.27 17.27 0 0 0 2.474 3.615c.883.93 3.348.118 3.278-1.226-.119-1.317-.533-2.883-1.355-4.418-.816-1.542-1.856-2.851-2.962-3.748zm-3.058 4.628c1.028 1.229 1.7 2.577 2.04 3.78.315 1.234-1.915 2.596-2.889 1.917-1.01-.67-2-1.61-2.936-2.728a14.473 14.473 0 0 1-2.11-3.363c-.46-1.1-.682-2.121-.56-2.954.855-.168 1.954.032 3.094.613 1.159.554 2.338 1.509 3.36 2.735h.001zm-3.141 4.627c1.058.98 1.862 2.09 2.284 3.17.457 1.074-1.622 2.697-2.63 2.214-1.05-.458-2.082-1.16-3.075-2.021a11.25 11.25 0 0 1-2.255-2.71c-.505-.918-.766-1.811-.706-2.597.785-.297 1.848-.327 2.957.01 1.137.312 2.322.982 3.425 1.934z"/><path class="st3" d="M106.488 46.326c-1.24-2.091 12.494-8.453 10.767-11.11.98 1.976 1.786 4.011 2.505 6.04 1.343 2.804-10.725 6.552-9.756 8.841-1.095-1.347-2.306-2.588-3.516-3.77v-.001z"/><path class="st3" d="M121.874 43.122c-.84-1.14-1.748-1.932-2.64-2.216-.47.724-.706 1.83-.742 3.132a17.85 17.85 0 0 0 .52 4.34c.37 1.559.88 2.955 1.486 4.098.6 1.124 3.208.929 3.482-.39a11.54 11.54 0 0 0-.189-4.613 12.115 12.115 0 0 0-1.917-4.351zm-4.141 3.752c.696 1.434.984 2.91 1.014 4.155-.01 1.271-2.52 2.05-3.283 1.155-.814-.887-1.516-2.045-2.153-3.346-.592-1.317-1.018-2.6-1.192-3.77-.186-1.163-.107-2.226.21-2.997.883.036 1.863.514 2.843 1.338.96.827 1.905 2.015 2.56 3.465h.001zm-4.226 3.723c.8 1.197 1.27 2.478 1.415 3.617.152 1.157-2.267 2.224-3.115 1.51-.907-.693-1.71-1.634-2.46-2.699-.71-1.084-1.242-2.153-1.494-3.163-.278-.999-.271-1.948-.026-2.685.856-.11 1.859.137 2.857.724 1.03.568 2.004 1.51 2.823 2.696z"/><path class="st3" d="M110.976 56.111c-.65-2.327 14.245-5.154 13.27-8.156.44 2.154.705 4.318.895 6.461.56 3.046-12.055 3.738-11.717 6.191-.717-1.569-1.57-3.065-2.448-4.496z"/><path class="st3" d="M126.709 56.736c-.542-1.303-1.194-2.298-1.998-2.79-.626.59-1.164 1.608-1.517 2.854a18.012 18.012 0 0 0-.607 4.329c-.04 1.6.093 3.076.395 4.326.3 1.234 2.87 1.674 3.478.462.531-1.206.973-2.774.99-4.503a12.277 12.277 0 0 0-.742-4.678h.001zm-4.975 2.63c.278 1.41.252 2.864-.075 4.264-.34 1.228-2.966 1.377-3.48.323-.565-1.056-.943-2.349-1.23-3.761-.233-1.419-.334-2.76-.187-3.938.1-1.167.466-2.184.967-2.852.847.246 1.657.955 2.413 1.984a10.144 10.144 0 0 1 1.592 3.98zm-5.049 2.578c.476 1.351.6 2.705.454 3.847-.144 1.16-2.761 1.611-3.4.71-.71-.89-1.24-1.999-1.703-3.215-.404-1.225-.656-2.385-.634-3.43-.031-1.027.242-1.949.66-2.602.865.1 1.75.587 2.587 1.396.854.798 1.548 1.947 2.036 3.294z"/><path class="st3" d="M112.827 66.676c-.031-2.42 15.113-1.55 14.942-4.688-.132 2.19-.418 4.347-.786 6.46-.214 3.078-12.636.728-12.913 3.19-.31-1.699-.747-3.356-1.243-4.962z"/><path class="st3" d="M127.92 71.066c-.187-1.387-.578-2.505-1.227-3.172-.758.418-1.527 1.273-2.191 2.394a17.564 17.564 0 0 0-1.675 4.047c-.453 1.538-.676 3.002-.714 4.286-.005 1.271 2.37 2.314 3.26 1.282a11.772 11.772 0 0 0 2.094-4.134c.513-1.663.594-3.321.453-4.703zm-5.481 1.354c-.09 1.58-.57 3.011-1.146 4.12-.635 1.107-3.225.62-3.451-.52-.29-1.16-.332-2.501-.25-3.94.131-1.435.373-2.757.811-3.866.393-1.108 1.008-2.003 1.663-2.531.76.445 1.36 1.324 1.83 2.503.423 1.176.684 2.657.543 4.234zm-5.536 1.294c.107 1.422-.099 2.767-.541 3.835-.416 1.093-3.078.896-3.468-.122-.465-1.034-.707-2.232-.845-3.521-.08-1.285-.033-2.475.244-3.481.237-1.007.727-1.84 1.3-2.373.81.305 1.556.993 2.152 1.975.627.983 1.012 2.26 1.158 3.687z"/><path class="st3" d="M111.973 77.377c.554-2.352 15.055 2.115 15.655-.972-.666 2.09-1.492 4.118-2.386 6.083-.985 2.94-12.436-2.338-13.327-.025.136-1.712.122-3.42.058-5.086z"/><path class="st3" d="M125.48 85.257c.184-1.39.077-2.576-.38-3.377-.848.22-1.798.87-2.733 1.798a18.06 18.06 0 0 0-2.658 3.519c-.818 1.384-1.424 2.744-1.779 3.98-.346 1.222 1.698 2.812 2.826 2.032a11.952 11.952 0 0 0 3.086-3.499 12.086 12.086 0 0 0 1.638-4.453zm-5.654-.01a10.28 10.28 0 0 1-2.164 3.71c-.898.92-3.279-.177-3.214-1.34.026-1.188.322-2.502.768-3.873.485-1.358 1.07-2.576 1.764-3.546.67-.975 1.479-1.7 2.247-2.05.628.61 1.003 1.61 1.145 2.863.126 1.244-.012 2.738-.546 4.237v-.001zm-5.696-.09c-.255 1.407-.806 2.656-1.496 3.582-.698.951-3.212.122-3.339-.962-.176-1.11-.11-2.331.088-3.61.245-1.262.598-2.398 1.12-3.303.491-.914 1.161-1.601 1.858-1.976.703.489 1.264 1.33 1.588 2.426.353 1.1.408 2.432.181 3.843z"/><path class="st3" d="M108.414 87.506c1.155-2.137 14.039 5.7 15.422 2.86-1.184 1.865-2.503 3.624-3.864 5.315-1.718 2.599-11.438-5.273-12.91-3.255.578-1.626.996-3.287 1.352-4.92z"/><path class="st3" d="M119.504 98.419c.51-1.31.73-2.474.485-3.361-.87.008-1.978.394-3.103 1.075-1.124.681-2.337 1.62-3.477 2.757-1.136 1.149-2.091 2.305-2.728 3.434-.663 1.08.938 3.136 2.21 2.635 1.266-.502 2.645-1.388 3.883-2.63a12.684 12.684 0 0 0 2.73-3.91zm-5.484-1.382a10.276 10.276 0 0 1-3.046 3.065c-1.096.68-3.124-.957-2.772-2.073.343-1.138.953-2.346 1.735-3.564.816-1.199 1.687-2.242 2.62-3.005.888-.79 1.864-1.292 2.699-1.445.447.744.545 1.8.378 3.055a10.18 10.18 0 0 1-1.614 3.967zm-5.504-1.468a8.975 8.975 0 0 1-2.348 3.121c-.939.73-3.144-.656-3-1.75.13-1.1.475-2.292 1.011-3.475.551-1.173 1.186-2.182 1.93-2.932.693-.775 1.54-1.268 2.305-1.469.56.646.867 1.592.917 2.737.054 1.149-.219 2.463-.815 3.768z"/><path class="st3" d="M102.385 96.465c1.68-1.774 12.144 8.898 14.226 6.5a58.51 58.51 0 0 1-5.1 4.201c-2.299 2.126-9.753-7.858-11.683-6.248a40.688 40.688 0 0 0 2.557-4.453z"/><path class="st3" d="M110.366 109.707c.85-1.126 1.303-2.246 1.332-3.131-.867-.218-2.029-.099-3.285.293-1.29.366-2.655 1.021-4.073 1.834-1.379.846-2.598 1.735-3.511 2.666-.913.892.127 3.275 1.481 3.088 1.367-.17 2.9-.729 4.438-1.612 1.518-.898 2.765-2.02 3.618-3.138zm-4.958-2.653c-1.197 1.068-2.5 1.847-3.732 2.233-1.226.408-2.782-1.668-2.162-2.671a14.473 14.473 0 0 1 2.586-3.032c1.086-.975 2.203-1.764 3.3-2.286 1.07-.54 2.107-.82 2.986-.746.214.806.08 1.882-.412 3.048-.514 1.141-1.37 2.38-2.566 3.454zm-4.968-2.748a8.773 8.773 0 0 1-3.067 2.456c-1.093.493-2.877-1.375-2.468-2.409a12.154 12.154 0 0 1 1.86-3.118c.822-1.016 1.715-1.826 2.612-2.383.89-.565 1.792-.888 2.614-.863.362.744.431 1.74.195 2.871a8.476 8.476 0 0 1-1.746 3.446z"/><path class="st3" d="M94.263 103.707c2.098-1.293 9.525 11.525 12.16 9.716-1.977 1.052-3.967 2.022-6.008 2.84-2.75 1.538-7.487-9.983-9.742-8.855 1.279-1.194 2.497-2.403 3.59-3.7v-.001z"/><path class="st3" d="M98.658 118.449c1.13-.856 1.825-1.872 2.08-2.716-.783-.42-1.93-.569-3.25-.496-1.345.048-2.844.34-4.413.798a19.222 19.222 0 0 0-4.087 1.73c-1.113.656-.708 3.216.649 3.356 1.367.16 3.002-.005 4.715-.488 1.695-.524 3.203-1.29 4.306-2.184zm-4.127-3.748c-1.44.738-2.902 1.177-4.187 1.259-1.291.103-2.271-2.279-1.424-3.113a14.57 14.57 0 0 1 3.278-2.307 14.561 14.561 0 0 1 3.77-1.435c1.194-.232 2.246-.293 3.08-.003.004.825-.373 1.873-1.16 2.853-.776 1.007-1.94 1.973-3.357 2.746zm-4.125-3.864c-1.165.857-2.434 1.431-3.6 1.63-1.174.224-2.426-2.011-1.77-2.923a11.91 11.91 0 0 1 2.59-2.565c.942-.73 1.998-1.3 3.125-1.686 1.024-.304 1.953-.438 2.75-.208.16.801-.012 1.803-.532 2.835-.528 1.005-1.388 2.064-2.563 2.917z"/><path class="st3" d="M84.581 108.764c2.348-.763 6.308 13.49 9.309 12.335-2.18.554-4.36 1.019-6.552 1.306-3.058.83-4.709-11.49-7.175-10.924 1.54-.849 3.023-1.73 4.418-2.717z"/><path class="st3" d="M85.077 124.102c1.31-.562 2.254-1.356 2.711-2.132-.658-.603-1.72-.99-3.027-1.267-1.306-.259-2.841-.36-4.48-.292a19.135 19.135 0 0 0-4.399.683c-1.241.367-1.501 2.945-.226 3.407 1.283.483 2.907.732 4.694.666 1.77-.092 3.429-.461 4.727-1.065zm-3.044-4.632c-1.581.373-3.109.438-4.378.205-1.276-.208-1.614-2.756-.58-3.358a14.667 14.667 0 0 1 3.763-1.44c1.31-.34 2.66-.5 4.013-.476 1.218.064 2.258.268 2.989.738-.201.814-.838 1.727-1.855 2.482-1.001.798-2.383 1.439-3.952 1.85v-.001zm-3.006-4.735c-1.354.536-2.725.79-3.903.7-1.2-.068-1.84-2.534-.971-3.26a12.616 12.616 0 0 1 3.169-1.86c1.213-.52 2.396-.78 3.454-.872 1.065-.051 2.004.062 2.712.466-.05.81-.461 1.767-1.237 2.611-.765.865-1.873 1.663-3.224 2.215z"/><path class="st4" d="M66.347 26.96c9.501.006 5.92-15.46 15.416-15.453l-7.186-1.61c-9.5-.007-6.922 17.334-16.419 17.328l8.19-.264-.001-.001z"/><path class="st4" d="M73.574 26.965c-9.497-.006-5.923-15.467-15.42-15.473l7.182-1.601c9.5.006 6.934 17.343 16.431 17.349l-8.193-.275zm-2.523 82.315c-9.5-.006-5.915 15.46-15.413 15.454l7.183 1.607c9.5.006 6.922-17.331 16.422-17.326l-8.192.265z"/><path class="st4" d="M68.917 109.278c9.498.007 5.92 15.468 15.42 15.473l-7.185 1.598c-9.497-.005-6.93-17.34-16.43-17.345l8.195.274z"/><path class="st5" d="M136.42 68.257c.01 35.769-29.733 64.745-66.432 64.723-36.699-.024-66.456-29.038-66.465-64.807l132.897.084z"/><path class="st6" d="M113.812 83.74l-87.67-.055-.006-24.922 87.669.055.007 24.922z"/><path class="st7" d="M73.988 53.81c0 2.152-1.808 3.913-4.02 3.912-2.207-.001-4.016-1.765-4.016-3.916l-.003-11.754c-.001-2.152 1.807-3.913 4.014-3.912 2.212.002 4.02 1.765 4.021 3.917l.004 11.753z"/><path class="st7" d="M74.53 45.619l-9.132-.006v-3.559l9.131.006.001 3.559z"/><path class="st8" d="M72.525 49.892l-5.116-.003-.001-4.984 5.116.003.001 4.984z"/><path class="st9" d="M73.987 50.961l-8.036-.005"/><path class="st7" d="M77.345 55.406c-.025 0-.047.006-.07.006-1.01-.001-1.823-.797-1.823-1.782a1.744 1.744 0 0 1 .633-1.338l-12.235-.008c.388.325.64.802.64 1.34 0 .984-.822 1.78-1.83 1.778-.021 0-.044-.005-.069-.006-.336 1.627-1.807 2.857-3.58 2.856v2.929l21.917.013v-2.929c-1.773 0-3.248-1.232-3.583-2.859z"/><path class="st10" d="M82.216 86.925l-24.48-.016-.004-14.773 24.481.016.003 14.773z"/><path class="st6" d="M124.763 60.252l-109.588-.07-.001-6.05 109.588.07.001 6.05z"/><path class="st7" d="M30.518 62.86c.502 0 .914.4.914.891l.002 8.545a.905.905 0 0 1-.912.889l-1.83-.002c-.5 0-.91-.402-.912-.89l-.001-8.544a.9.9 0 0 1 .91-.89l1.83.001h-.001z"/><path class="st11" d="M30.335 70.692c.205 0 .368.163.368.356v1.068a.362.362 0 0 1-.367.357h-1.459a.362.362 0 0 1-.365-.358v-1.069c0-.193.163-.355.364-.355l1.46.001h-.001z"/><path class="st11" d="M32.348 72.117l-1.37 5.34-2.736-.003-1.371-5.34 5.477.003z"/><path class="st7" d="M32.349 72.834l-1.37 5.337-2.736-.003-1.372-5.338 5.478.004z"/><path class="st11" d="M29.608 73.897c1.005 0 1.827.802 1.827 1.782l.002 6.406c0 .979-.822 1.78-1.827 1.78l-.003-.001c-1.004 0-1.823-.802-1.824-1.78l-.001-6.408c0-.98.818-1.78 1.823-1.78h.003v.001z"/><path class="st12" d="M29.608 73.897c1.005 0 1.827.802 1.827 1.782m0 0l.002 6.406m0 0c0 .979-.822 1.78-1.827 1.78m0 0l-.003-.001m0 0c-1.004 0-1.823-.802-1.824-1.78m0 0l-.001-6.408m0 0c0-.98.818-1.78 1.823-1.78m0 0h.003"/><path class="st13" d="M29.608 73.897c1.005 0 1.827.802 1.827 1.782m0 0l.002 6.406m0 0c0 .979-.822 1.78-1.827 1.78m0 0l-.003-.001m0 0c-1.004 0-1.823-.802-1.824-1.78m0 0l-.001-6.408m0 0c0-.98.818-1.78 1.823-1.78m0 0h.003"/><path class="st14" d="M29.607 83.864l-.002-9.967"/><path class="st7" d="M31.436 80.127l.001 3.56-3.653-.002-.001-3.561 3.653.003z"/><path class="st11" d="M31.069 81.554c0 .487-.65.887-1.462.886-.803 0-1.455-.4-1.455-.888 0-.494.652-.89 1.455-.889.812 0 1.462.396 1.462.89v.001z"/><path class="st7" d="M36.727 62.864c.504.001.914.4.915.891l.001 8.545c0 .488-.41.89-.913.89l-1.824-.002a.906.906 0 0 1-.914-.892l-.002-8.543a.9.9 0 0 1 .91-.89h.003l1.824.001z"/><path class="st11" d="M36.55 70.697c.197 0 .359.158.362.355v1.068a.36.36 0 0 1-.362.356h-1.462a.362.362 0 0 1-.368-.356v-1.069c0-.194.163-.356.368-.356l1.462.002z"/><path class="st11" d="M38.556 72.122l-1.369 5.338-2.74-.003-1.365-5.339 5.474.004z"/><path class="st7" d="M38.556 72.837l-1.368 5.337h-2.74l-1.366-5.341 5.474.004z"/><path class="st11" d="M35.82 73.9c1.002.001 1.824.803 1.824 1.782l.002 6.407c0 .979-.822 1.779-1.823 1.779-1.005-.001-1.828-.803-1.828-1.782l-.001-6.406c0-.979.82-1.78 1.826-1.78z"/><path class="st12" d="M35.82 73.9c1.002.001 1.824.803 1.824 1.782m0 0l.002 6.407m0 0c0 .98-.822 1.779-1.823 1.779-1.005 0-1.828-.802-1.828-1.782m0 0l-.001-6.406m0 0c0-.979.82-1.78 1.826-1.78"/><path class="st13" d="M35.82 73.9c1.002.001 1.824.803 1.824 1.782m0 0l.002 6.407m0 0c0 .98-.822 1.779-1.823 1.779-1.005 0-1.828-.802-1.828-1.782m0 0l-.001-6.406m0 0c0-.979.82-1.78 1.826-1.78"/><path class="st14" d="M35.823 83.868L35.82 73.9"/><path class="st7" d="M37.645 80.13l.001 3.562-3.65-.002-.001-3.562 3.65.002z"/><path class="st11" d="M37.28 81.557c0 .489-.649.887-1.458.887-.807 0-1.465-.4-1.465-.889 0-.493.658-.889 1.464-.888.81 0 1.46.396 1.46.89h-.001z"/><path class="st7" d="M42.942 62.868c.5 0 .913.4.913.892l.002 8.542c0 .49-.412.89-.913.89h-1.83a.909.909 0 0 1-.914-.891l-.002-8.544c0-.491.412-.89.914-.89l1.83.001z"/><path class="st11" d="M42.755 70.7c.205 0 .368.164.368.357v1.067a.36.36 0 0 1-.366.356h-.002l-1.455-.001a.362.362 0 0 1-.366-.356v-1.068c0-.193.164-.356.365-.356l1.456.001z"/><path class="st11" d="M44.77 72.125l-1.368 5.338-2.74-.002-1.372-5.34 5.48.004z"/><path class="st7" d="M44.77 72.84l-1.367 5.338-2.74-.002-1.372-5.339 5.479.003z"/><path class="st11" d="M42.031 73.905c1.005 0 1.827.802 1.827 1.781l.002 6.407c0 .979-.822 1.78-1.826 1.78h-.004c-1.004-.002-1.827-.803-1.827-1.782l-.001-6.407c0-.98.821-1.78 1.826-1.78h.003v.001z"/><path class="st12" d="M42.031 73.905c1.005 0 1.827.802 1.827 1.781m0 0l.002 6.407m0 0c0 .979-.822 1.78-1.826 1.78m0 0h-.004m0 0c-1.004-.002-1.827-.803-1.827-1.782m0 0l-.001-6.407m0 0c-.001-.98.821-1.78 1.826-1.78m0 0h.003"/><path class="st13" d="M42.031 73.905c1.005 0 1.827.802 1.827 1.781m0 0l.002 6.407m0 0c0 .979-.822 1.78-1.826 1.78m0 0h-.004m0 0c-1.004-.002-1.827-.803-1.827-1.782m0 0l-.001-6.407m0 0c-.001-.98.821-1.78 1.826-1.78m0 0h.003"/><path class="st14" d="M42.03 83.872l-.002-9.967"/><path class="st7" d="M43.859 80.134v3.562l-3.656-.004v-3.56l3.656.002z"/><path class="st11" d="M43.491 81.561c0 .489-.654.888-1.461.887-.81 0-1.462-.4-1.462-.888 0-.494.652-.89 1.461-.89.807.001 1.462.398 1.462.891z"/><path class="st7" d="M49.15 62.872c.5 0 .91.4.91.891l.003 8.544c0 .488-.41.89-.91.89l-1.828-.002c-.5 0-.91-.402-.91-.89l-.002-8.544a.9.9 0 0 1 .91-.89l1.826.001h.001z"/><path class="st11" d="M48.97 70.704c.2 0 .364.162.364.356v1.068a.362.362 0 0 1-.365.356h-1.461a.36.36 0 0 1-.362-.358v-1.068c0-.193.163-.354.361-.355l1.462.001h.001z"/><path class="st11" d="M50.976 72.129l-1.362 5.338-2.744-.001-1.372-5.34 5.478.003z"/><path class="st7" d="M50.976 72.844l-1.362 5.338-2.744-.002-1.371-5.339 5.477.003z"/><path class="st11" d="M48.24 73.909c1 0 1.823.802 1.824 1.781l.001 6.407c0 .979-.821 1.78-1.823 1.78-1.005-.002-1.824-.803-1.824-1.783l-.002-6.406c0-.98.818-1.78 1.823-1.779h.001z"/><path class="st12" d="M48.24 73.909c1 0 1.823.802 1.824 1.781m0 0l.001 6.407m0 0c0 .979-.821 1.78-1.823 1.78-1.005-.002-1.824-.803-1.824-1.783m0 0l-.002-6.406m0 0c0-.98.818-1.78 1.823-1.779"/><path class="st13" d="M48.24 73.909c1 0 1.823.802 1.824 1.781m0 0l.001 6.407m0 0c0 .979-.821 1.78-1.823 1.78-1.005-.002-1.824-.803-1.824-1.783m0 0l-.002-6.406m0 0c0-.98.818-1.78 1.823-1.779"/><path class="st14" d="M48.242 83.877l-.003-9.968"/><path class="st7" d="M50.065 80.137v3.561l-3.647-.001v-3.561l3.647.001z"/><path class="st11" d="M49.703 81.565c0 .49-.655.887-1.461.887-.807-.001-1.462-.4-1.462-.888 0-.495.655-.89 1.461-.89s1.462.397 1.462.89v.001z"/><path class="st7" d="M55.358 62.876c.504 0 .913.4.914.891l.002 8.544c0 .488-.41.89-.913.89l-1.827-.001c-.5-.001-.914-.404-.914-.892l-.002-8.543c0-.492.412-.89.913-.89l1.827.001z"/><path class="st11" d="M55.181 70.708c.198 0 .365.162.365.356v1.068a.363.363 0 0 1-.365.356h-1.458a.363.363 0 0 1-.369-.357v-1.068c0-.193.164-.356.368-.357l1.46.002h-.001z"/><path class="st11" d="M57.19 72.133l-1.368 5.339-2.74-.002-1.372-5.34 5.48.003z"/><path class="st7" d="M57.19 72.848l-1.368 5.338-2.74-.001-1.372-5.34 5.48.003z"/><path class="st11" d="M54.447 73.912c1.005.001 1.827.803 1.828 1.782l.001 6.407c0 .98-.822 1.78-1.826 1.778-1.005 0-1.828-.802-1.828-1.781V75.69c-.001-.979.82-1.78 1.825-1.78v.002z"/><path class="st12" d="M54.447 73.912c1.005.001 1.827.803 1.828 1.782m0 0l.002 6.406m0 0c0 .98-.823 1.78-1.827 1.78m0 0c-1.005 0-1.828-.803-1.828-1.782m0 0V75.69m0 0c-.001-.979.82-1.78 1.825-1.78"/><path class="st13" d="M54.447 73.912c1.005.001 1.827.803 1.828 1.782m0 0l.002 6.406m0 0c0 .98-.823 1.78-1.827 1.78m0 0c-1.005 0-1.828-.803-1.828-1.782m0 0V75.69m0 0c-.001-.979.82-1.78 1.825-1.78"/><path class="st14" d="M54.45 83.879l-.003-9.967"/><path class="st7" d="M56.276 80.142v3.56l-3.653-.002-.001-3.56 3.654.002z"/><path class="st11" d="M55.91 81.57c0 .488-.65.886-1.46.886-.807 0-1.459-.4-1.459-.888 0-.495.652-.89 1.458-.889.81 0 1.461.396 1.462.89l-.001.001z"/><path class="st7" d="M63.759 62.882c1.206 0 2.192.962 2.193 2.138l.001 6.05c0 1.176-.985 2.136-2.191 2.136h-.004c-1.203-.001-2.19-.963-2.19-2.138l-.002-6.052c0-1.175.986-2.136 2.19-2.134h.003z"/><path class="st11" d="M64.86 70.714c.199 0 .362.163.362.356v1.068a.36.36 0 0 1-.362.357l-2.195-.002a.361.361 0 0 1-.368-.354v-1.071a.363.363 0 0 1 .367-.356l2.196.002z"/><path class="st11" d="M66.504 72.139l-1.372 5.338-2.737-.002-1.375-5.34 5.484.004z"/><path class="st7" d="M66.504 72.854l-1.371 5.338-2.738-.002-1.374-5.339 5.483.003z"/><path class="st11" d="M63.762 73.918c1.004.001 1.827.802 1.827 1.782l.002 6.406c0 .98-.822 1.78-1.826 1.78h-.003c-1.002 0-1.825-.803-1.825-1.782l-.001-6.407c0-.979.821-1.78 1.823-1.78h.003v.001z"/><path class="st12" d="M63.762 73.918c1.004.001 1.827.802 1.827 1.782m0 0l.002 6.406m0 0c0 .98-.822 1.78-1.826 1.78m0 0h-.003m0 0c-1.003 0-1.825-.803-1.825-1.782m0 0l-.002-6.407m0 0c0-.979.822-1.78 1.823-1.78m0 0h.004"/><path class="st13" d="M63.762 73.918c1.004.001 1.827.802 1.827 1.782m0 0l.002 6.406m0 0c0 .98-.822 1.78-1.826 1.78m0 0h-.003m0 0c-1.003 0-1.825-.803-1.825-1.782m0 0l-.002-6.407m0 0c0-.979.822-1.78 1.823-1.78m0 0h.004"/><path class="st14" d="M63.765 83.885l-.003-9.967"/><path class="st7" d="M65.59 80.148l.001 3.56-3.654-.002v-3.56l3.653.002z"/><path class="st11" d="M65.225 81.575c0 .488-.651.887-1.46.887-.807 0-1.466-.4-1.466-.888 0-.495.658-.89 1.465-.889.809 0 1.46.396 1.46.89h.001z"/><path class="st7" d="M69.97 62.885c1.207.001 2.19.963 2.19 2.138l.001 6.05c0 1.177-.982 2.137-2.189 2.137-1.205 0-2.192-.962-2.192-2.138l-.001-6.052c0-1.175.985-2.135 2.19-2.135h.001z"/><path class="st11" d="M71.065 70.718c.205 0 .37.163.37.356v1.068a.361.361 0 0 1-.366.356h-2.192a.362.362 0 0 1-.366-.358v-1.068c0-.193.163-.356.365-.356l2.189.002z"/><path class="st11" d="M72.71 72.143l-1.366 5.338-2.74-.002-1.372-5.34 5.478.004z"/><path class="st7" d="M72.71 72.859l-1.365 5.337-2.741-.003-1.371-5.338 5.477.004z"/><path class="st11" d="M69.973 73.922c1.001 0 1.825.803 1.825 1.781v6.407c.001.979-.821 1.78-1.823 1.78-1.002-.001-1.824-.803-1.824-1.783l-.001-6.405c0-.98.82-1.78 1.823-1.78z"/><path class="st12" d="M69.973 73.922c1.001 0 1.825.803 1.825 1.781m0 0v6.407m0 0c.001.979-.821 1.78-1.823 1.78-1.002-.001-1.824-.803-1.824-1.783m0 0l-.001-6.405m0 0c0-.98.82-1.78 1.823-1.78"/><path class="st13" d="M69.973 73.922c1.001 0 1.825.803 1.825 1.781m0 0v6.407m0 0c.001.979-.821 1.78-1.823 1.78-1.002-.001-1.824-.803-1.824-1.783m0 0l-.001-6.405m0 0c0-.98.82-1.78 1.823-1.78"/><path class="st7" d="M76.182 62.89c1.202 0 2.19.962 2.19 2.137v6.051c0 1.176-.984 2.136-2.187 2.136-1.207-.001-2.193-.963-2.194-2.14v-6.05c-.002-1.175.984-2.135 2.191-2.135v.001z"/><path class="st11" d="M77.277 70.722c.201 0 .366.163.366.355v1.069a.36.36 0 0 1-.364.356h-.002l-2.192-.001a.363.363 0 0 1-.365-.357l-.001-1.068c0-.193.164-.356.366-.356l2.192.002z"/><path class="st11" d="M78.924 72.147l-1.372 5.338-2.737-.002-1.37-5.34 5.479.004z"/><path class="st7" d="M78.924 72.862l-1.37 5.338-2.74-.002-1.37-5.34 5.48.004z"/><path class="st11" d="M76.185 73.926c1.005 0 1.827.803 1.827 1.782l.002 6.406c0 .98-.823 1.78-1.827 1.78h-.003c-1.004-.002-1.827-.802-1.827-1.782l-.001-6.407c0-.979.821-1.779 1.825-1.779h.004z"/><path class="st12" d="M76.185 73.926c1.005 0 1.827.803 1.827 1.782m0 0l.002 6.406m0 0c0 .98-.823 1.78-1.827 1.78m0 0h-.003m0 0c-1.004-.002-1.827-.802-1.827-1.782m0 0l-.001-6.407m0 0c0-.979.821-1.779 1.825-1.779m0 0h.004"/><path class="st13" d="M76.185 73.926c1.005 0 1.827.803 1.827 1.782m0 0l.002 6.406m0 0c0 .98-.823 1.78-1.827 1.78m0 0h-.003m0 0c-1.004-.002-1.827-.802-1.827-1.782m0 0l-.001-6.407m0 0c0-.979.821-1.779 1.825-1.779m0 0h.004"/><path class="st14" d="M76.187 83.894l-.002-9.968"/><path class="st7" d="M78.014 80.156v3.56l-3.656-.001-.002-3.562 3.658.003z"/><path class="st11" d="M77.645 81.582c0 .489-.652.888-1.459.887-.808 0-1.464-.399-1.465-.887 0-.494.655-.89 1.465-.89.807 0 1.46.397 1.46.89h-.001z"/><path class="st7" d="M86.41 62.896c.5 0 .913.4.913.89l.002 8.545c0 .487-.413.889-.913.889l-1.83-.001c-.5-.001-.914-.403-.914-.89l-.002-8.544c0-.492.413-.89.914-.89h1.83v.001z"/><path class="st11" d="M86.224 70.727c.203.001.37.163.37.356v1.068a.364.364 0 0 1-.368.357l-1.461-.001c-.2 0-.366-.16-.367-.357v-1.068c0-.193.167-.356.366-.356l1.46.001z"/><path class="st11" d="M88.239 72.152l-1.372 5.339-2.738-.002-1.37-5.34 5.48.003z"/><path class="st7" d="M88.239 72.868l-1.372 5.338-2.737-.002-1.372-5.34 5.481.004z"/><path class="st11" d="M85.499 73.933c1.004 0 1.827.801 1.826 1.78l.003 6.407c0 .98-.822 1.78-1.826 1.78l-.003-.002c-1.005 0-1.827-.8-1.829-1.781V75.71c0-.979.82-1.78 1.826-1.777h.003z"/><path class="st12" d="M85.499 73.933c1.004 0 1.827.801 1.826 1.78m0 .001l.003 6.407m0 0c0 .978-.822 1.78-1.826 1.778m0 0h-.004m0 0c-1.004 0-1.826-.801-1.828-1.782m0 0V75.71m0 0c0-.978.82-1.78 1.826-1.777m0 0h.003"/><path class="st13" d="M85.499 73.933c1.004 0 1.827.801 1.826 1.78m0 .001l.003 6.407m0 0c0 .978-.822 1.78-1.826 1.778m0 0h-.004m0 0c-1.004 0-1.826-.801-1.828-1.782m0 0V75.71m0 0c0-.978.82-1.78 1.826-1.777m0 0h.003"/><path class="st14" d="M85.495 83.899l-.003-9.966"/><path class="st7" d="M87.327 80.16v3.562l-3.656-.002v-3.56h3.656z"/><path class="st11" d="M86.958 81.588c.002.489-.65.887-1.464.887-.803 0-1.459-.4-1.458-.888 0-.494.655-.889 1.458-.889.812 0 1.465.397 1.464.89z"/><path class="st7" d="M92.618 62.9c.503 0 .914.399.914.89l.002 8.545c0 .487-.41.89-.914.89l-1.827-.002a.906.906 0 0 1-.913-.89l-.002-8.544a.9.9 0 0 1 .91-.89h1.83v.001z"/><path class="st11" d="M92.436 70.731c.198 0 .363.164.363.357v1.068a.36.36 0 0 1-.361.356l-1.46-.002a.36.36 0 0 1-.364-.356v-1.068c0-.193.163-.355.364-.355h1.458z"/><path class="st11" d="M94.447 72.156l-1.366 5.34-2.74-.002-1.372-5.341 5.478.003z"/><path class="st7" d="M94.447 72.872l-1.366 5.338-2.74-.002-1.372-5.34 5.478.004z"/><path class="st11" d="M91.708 73.936c1.004 0 1.826.802 1.826 1.781l.002 6.406c0 .98-.822 1.78-1.826 1.78-1.005 0-1.827-.803-1.828-1.782v-6.406c-.001-.98.82-1.78 1.826-1.779z"/><path class="st12" d="M91.708 73.936c1.004 0 1.826.802 1.826 1.781m0 0l.002 6.406m0 0c0 .98-.822 1.78-1.826 1.78m0 0c-1.005 0-1.827-.803-1.828-1.782m0 0l-.001-6.406m0 0c0-.98.822-1.78 1.827-1.779"/><path class="st13" d="M91.708 73.936c1.004 0 1.826.802 1.826 1.781m0 0l.002 6.406m0 0c0 .98-.822 1.78-1.826 1.78m0 0c-1.005 0-1.827-.803-1.828-1.782m0 0l-.001-6.406m0 0c0-.98.822-1.78 1.827-1.779"/><path class="st14" d="M91.71 83.903l-.002-9.967"/><path class="st7" d="M93.535 80.165l.002 3.562-3.654-.003v-3.56l3.652.001z"/><path class="st11" d="M93.166 81.593c.001.488-.65.887-1.457.887-.81 0-1.462-.401-1.462-.89 0-.494.652-.888 1.462-.888.806 0 1.457.397 1.457.89v.001z"/><path class="st7" d="M98.83 62.903c.5 0 .913.4.913.891l.001 8.544c.001.488-.412.89-.913.89l-1.826-.002c-.5 0-.914-.402-.914-.89l-.002-8.544c0-.491.412-.89.913-.89l1.828.001z"/><path class="st11" d="M98.648 70.735c.202 0 .365.162.365.356l.001 1.069a.36.36 0 0 1-.365.355h-1.462a.36.36 0 0 1-.365-.355v-1.07c0-.194.164-.356.365-.355h1.461z"/><path class="st11" d="M100.656 72.16L99.29 77.5l-2.74-.003-1.375-5.339 5.481.002z"/><path class="st7" d="M100.656 72.876l-1.367 5.337-2.74-.001-1.374-5.34 5.481.004z"/><path class="st11" d="M97.918 73.94c1.005 0 1.827.802 1.827 1.782l.002 6.406c0 .98-.822 1.78-1.827 1.78-1.004 0-1.825-.803-1.826-1.782l-.002-6.407c0-.98.822-1.78 1.826-1.779z"/><path class="st12" d="M97.918 73.94c1.005 0 1.827.802 1.827 1.782m0 0l.002 6.406m0 0c0 .98-.822 1.78-1.827 1.779-1.004 0-1.825-.802-1.826-1.781m0 0l-.002-6.407m0 0c0-.98.822-1.78 1.827-1.779"/><path class="st13" d="M97.918 73.94c1.005 0 1.827.802 1.827 1.782m0 0l.002 6.406m0 0c0 .98-.822 1.78-1.827 1.779-1.004 0-1.825-.802-1.826-1.781m0 0l-.002-6.407m0 0c0-.98.822-1.78 1.827-1.779"/><path class="st14" d="M97.918 83.907l-.003-9.967"/><path class="st7" d="M99.746 80.17l.002 3.56-3.654-.002v-3.562l3.652.004z"/><path class="st11" d="M99.382 81.597c0 .488-.651.887-1.465.886-.804 0-1.459-.4-1.459-.889 0-.493.655-.889 1.459-.888.812 0 1.464.396 1.465.891z"/><path class="st7" d="M105.037 62.907c.504 0 .914.4.914.891l.002 8.544c0 .488-.41.89-.914.89l-1.823-.002a.904.904 0 0 1-.913-.89l-.004-8.544a.903.903 0 0 1 .914-.89l1.824.001z"/><path class="st11" d="M104.856 70.74c.201 0 .366.162.366.355v1.067a.362.362 0 0 1-.365.358l-1.456-.001a.364.364 0 0 1-.368-.357v-1.069c0-.193.166-.355.368-.355l1.455.001v.001z"/><path class="st11" d="M106.869 72.164l-1.368 5.34-2.744-.003-1.369-5.34 5.481.003z"/><path class="st7" d="M106.87 72.88l-1.37 5.338-2.743-.002-1.368-5.339 5.481.003z"/><path class="st11" d="M104.127 73.944c1.004 0 1.826.801 1.827 1.781l.001 6.407c0 .98-.821 1.78-1.825 1.779-1.002-.001-1.824-.802-1.825-1.78l-.002-6.408c0-.98.822-1.78 1.824-1.78v.001z"/><path class="st12" d="M104.127 73.944c1.004 0 1.826.801 1.827 1.781m0 0l.001 6.407m0 0c0 .98-.821 1.78-1.825 1.778-1.002 0-1.824-.801-1.825-1.78m0 0l-.002-6.407m0 0c0-.98.822-1.78 1.824-1.78"/><path class="st13" d="M104.127 73.944c1.004 0 1.826.801 1.827 1.781m0 0l.001 6.407m0 0c0 .98-.821 1.78-1.825 1.778-1.002 0-1.824-.801-1.825-1.78m0 0l-.002-6.407m0 0c0-.98.822-1.78 1.824-1.78"/><path class="st14" d="M104.129 83.91l-.002-9.966"/><path class="st7" d="M105.955 80.173l.001 3.561-3.65-.002-.001-3.562 3.65.003z"/><path class="st11" d="M105.593 81.6c.001.49-.658.887-1.464.887s-1.462-.4-1.462-.888c0-.494.655-.89 1.462-.889.806 0 1.465.396 1.464.89z"/><path class="st7" d="M111.249 62.911c.5 0 .914.4.913.891l.002 8.544c0 .488-.412.89-.913.89l-1.827-.002a.908.908 0 0 1-.914-.89l-.002-8.544c0-.492.413-.89.914-.89l1.827.001z"/><path class="st11" d="M111.067 70.743c.202 0 .366.163.366.356v1.068a.36.36 0 0 1-.364.356h-1.462a.36.36 0 0 1-.364-.356v-.001l-.001-1.069c0-.192.163-.355.364-.355h1.461v.001z"/><path class="st11" d="M113.078 72.168l-1.368 5.338-2.741-.002-1.372-5.339 5.481.003z"/><path class="st7" d="M113.078 72.883l-1.37 5.338-2.739-.002-1.371-5.34 5.48.004z"/><path class="st11" d="M110.338 73.947c1.005.001 1.827.803 1.828 1.782l.001 6.406c0 .98-.822 1.78-1.827 1.78-1.004-.001-1.826-.803-1.827-1.782l-.002-6.406c0-.979.822-1.78 1.827-1.78z"/><path class="st12" d="M110.338 73.947c1.005.001 1.827.803 1.828 1.782m0 0l.001 6.406m0 0c0 .98-.822 1.78-1.827 1.78m0 0c-1.004-.001-1.826-.803-1.827-1.782m0 0l-.002-6.406m0 0c0-.979.822-1.78 1.827-1.78"/><path class="st13" d="M110.338 73.947c1.005.001 1.827.803 1.828 1.782m0 0l.001 6.406m0 0c0 .98-.822 1.78-1.827 1.78m0 0c-1.004-.001-1.826-.803-1.827-1.782m0 0l-.002-6.406m0 0c0-.979.822-1.78 1.827-1.78"/><path class="st14" d="M110.341 83.915l-.003-9.968"/><path class="st7" d="M112.166 80.177l.002 3.561-3.654-.002-.001-3.561 3.653.002z"/><path class="st11" d="M111.798 81.605c0 .488-.648.887-1.458.886-.804 0-1.46-.4-1.46-.889.002-.494.656-.89 1.46-.888.809 0 1.458.396 1.458.89v.001z"/><path class="st7" d="M134.815 84.772l-.002-3.205-1.408-1.374-12.514-.008v1.426l-101.836-.065v-1.424l-12.51-.008-1.406 1.371.001 3.205-.365.353v2.189l130.402.081v-2.188l-.362-.353z"/><path class="st11" d="M56.825 84.772l-28.859-.018V82.26l28.859.019v2.493zm-.182 1.781l-28.49-.019v-1.068l28.49.017v1.07zm55.339-1.747l-28.855-.017-.001-2.494 28.855.018.001 2.493zm-.182 1.781l-28.49-.018v-1.068l28.49.018v1.068zm-30.136-1.799l-23.377-.016V82.28l23.377.014v2.494zm.185 1.782l-23.745-.016v-1.069l23.744.014.001 1.071z"/><path class="st7" d="M59.194 61.454l-32.878-.02v-.354l32.878.02v.354zm54.429.034l-32.877-.02-.001-.353 32.878.02v.353z"/><path class="st7" d="M26.692 86.89l-20.824-.014-.006-27.414 20.823.013.007 27.415z"/><path class="st11" d="M25.96 84.752L6.6 84.741l-.001-2.495 19.362.014-.001 2.492zm.183 1.781L6.42 86.52v-1.068l19.724.012-.001 1.069z"/><path class="st6" d="M26.316 57.694l-20.09-.013 7.536-3.556 5.021.004 7.533 3.565z"/><path class="st13" d="M13.562 57.686a2.926 2.926 0 0 1 2.712-1.775c1.224 0 2.273.736 2.707 1.779m-2.707-2.67c-2.043-.001-3.76 1.13-4.247 2.665m8.49.005c-.489-1.534-2.205-2.669-4.243-2.67m0-.89c-2.9-.002-5.3 1.537-5.764 3.554m11.526.007c-.465-2.018-2.867-3.56-5.762-3.561"/><path class="st7" d="M27.595 58.017c-.363 0-.69.098-.93.255-.24.16-.39.38-.39.622 0 .237.151.458.39.618l-20.782-.013c.237-.16.384-.38.384-.617 0-.242-.148-.463-.384-.624a1.753 1.753 0 0 0-.936-.255l22.648.014z"/><path class="st11" d="M20.3 81.191l-8.04-.005-.001-7.408c0-.983 1.798-1.78 4.019-1.778 2.217 0 4.019.802 4.02 1.784l.001 7.407h.001z"/><path class="st7" d="M19.2 80.797l-5.846-.003-.002-6.552c0-.59 1.31-1.067 2.926-1.066 1.615 0 2.92.48 2.92 1.07l.002 6.551zM17.736 60.54l-.727 2.846h-1.464l-.732-2.847 2.923.001z"/><path class="st11" d="M7.326 73.704c0-.79.983-1.423 2.193-1.422 1.212 0 2.192.635 2.192 1.424l.002 7.48-4.385-.003-.002-7.48v.001zm13.516.009c0-.789.982-1.424 2.189-1.423 1.216.001 2.193.637 2.193 1.426l.002 7.478-4.382-.003-.002-7.478zm-7.492-9.967c0-1.179 1.31-2.133 2.925-2.132 1.616.001 2.92.956 2.92 2.136l.002 7.115-5.845-.002-.003-7.117h.001zm5.844-4.276v1.072l-5.845-.004v-1.07l5.845.002zM9.516 61.6c.5.001.913.4.914.892l.001 8.544c0 .49-.412.89-.912.888a.907.907 0 0 1-.915-.89l-.002-8.543c0-.491.413-.89.914-.89V61.6z"/><path class="st14" d="M9.516 61.6c.5.001.913.4.914.892m0 0l.001 8.544m0 0c0 .49-.412.89-.912.888m0 0a.907.907 0 0 1-.915-.89m0 0l-.002-8.543m0 0c0-.491.413-.89.914-.89"/><path class="st11" d="M7.708 62.312c.29 0 .529.23.529.513l.003 8.586c0 .283-.24.513-.53.513h-.034a.521.521 0 0 1-.53-.512v-.002l-.002-8.585c0-.283.237-.513.53-.513h.034z"/><path class="st14" d="M7.708 62.312c.29 0 .529.23.529.513m0 0l.003 8.586m0 0c0 .283-.24.513-.53.513m0 0h-.034m0 0a.521.521 0 0 1-.53-.512v-.002m0 0l-.002-8.585m0 0c0-.283.237-.513.53-.513m0 0h.034"/><path class="st11" d="M11.361 62.314c.293 0 .53.23.53.513l.002 8.587a.52.52 0 0 1-.528.512h-.035a.521.521 0 0 1-.53-.512v-.001l-.001-8.586c0-.283.236-.513.53-.513h.034-.001z"/><path class="st14" d="M11.361 62.314c.293 0 .53.23.53.513m0 0l.002 8.587m0 0a.52.52 0 0 1-.528.512h-.002m0 0h-.034m0 0a.521.521 0 0 1-.53-.512v-.001m0 0l-.001-8.586m0 0c0-.283.236-.512.53-.513m0 0h.034"/><path class="st11" d="M23.034 61.61c.501 0 .91.399.91.89l.003 8.544a.9.9 0 0 1-.91.889h-.003a.902.902 0 0 1-.913-.89l-.003-8.544c0-.491.41-.89.913-.89h.003v.001z"/><path class="st14" d="M23.034 61.61c.501 0 .91.399.91.89m0 0l.003 8.544m0 0a.9.9 0 0 1-.91.889m0 0h-.004m0 0a.902.902 0 0 1-.912-.89m0 0l-.003-8.543m0 0c0-.492.41-.891.913-.89m0 0h.003"/><path class="st11" d="M21.223 62.32c.293 0 .53.23.53.513l.002 8.588a.52.52 0 0 1-.529.511h-.038a.524.524 0 0 1-.53-.512l-.001-8.587a.523.523 0 0 1 .566-.513z"/><path class="st14" d="M21.223 62.32c.293 0 .53.23.53.513m0 0l.002 8.588m0 0a.52.52 0 0 1-.529.511m0 0h-.038m0 0a.524.524 0 0 1-.53-.512m0 0l-.001-8.587m0 0c0-.283.239-.512.529-.512m0 0h.037"/><path class="st11" d="M24.878 62.323c.289 0 .529.23.529.513l.002 8.586c0 .283-.24.513-.529.512h-.035a.522.522 0 0 1-.529-.512l-.002-8.587a.52.52 0 0 1 .528-.512h.036z"/><path class="st14" d="M24.878 62.323c.289 0 .529.23.529.513m0 0l.002 8.586m0 0c0 .283-.24.513-.529.512m0 0h-.035m0 0a.522.522 0 0 1-.529-.512m0 0l-.002-8.587m0 0a.52.52 0 0 1 .528-.512h.001m0 0h.035"/><path class="st7" d="M26.319 71.935L6.23 71.922v-1.064l20.089.013v1.064zm107.765 15.022l-20.819-.013-.008-27.414 20.82.013.007 27.414z"/><path class="st11" d="M133.353 84.82l-19.362-.012v-2.494l19.361.013.001 2.493zm.183 1.78l-19.723-.012-.001-1.068 19.723.012.001 1.068z"/><path class="st6" d="M133.709 57.761l-20.087-.012 7.533-3.556 5.022.003 7.532 3.565z"/><path class="st13" d="M120.957 57.754a2.92 2.92 0 0 1 2.707-1.776c1.224 0 2.278.737 2.713 1.78m-2.714-2.67c-2.039-.002-3.752 1.13-4.24 2.665m8.486.005c-.489-1.535-2.205-2.67-4.246-2.67m0-.89c-2.897-.002-5.296 1.537-5.76 3.554m11.526.007c-.465-2.018-2.868-3.56-5.766-3.561"/><path class="st7" d="M134.99 58.085c-.361 0-.692.098-.932.255-.242.159-.387.38-.387.622 0 .237.145.457.388.617l-20.784-.012c.236-.16.385-.38.386-.618-.001-.242-.149-.463-.386-.623a1.738 1.738 0 0 0-.935-.256l22.65.015z"/><path class="st11" d="M127.692 81.258l-8.038-.004-.001-7.409c-.001-.982 1.797-1.78 4.014-1.777 2.22 0 4.023.8 4.023 1.783l.002 7.407z"/><path class="st7" d="M126.596 80.864l-5.846-.002-.001-6.552c-.001-.59 1.306-1.069 2.918-1.067 1.616 0 2.927.482 2.927 1.07l.002 6.551zm-1.467-20.256l-.73 2.846-1.462-.001-.728-2.846 2.92.001z"/><path class="st11" d="M114.72 73.772c-.001-.79.982-1.424 2.191-1.423 1.212 0 2.193.636 2.193 1.425l.002 7.479-4.385-.003-.001-7.478zm13.51.008c0-.79.987-1.423 2.194-1.423 1.22.002 2.195.637 2.195 1.427l.002 7.477-4.388-.002-.002-7.48-.001.001zm-7.485-9.966c0-1.18 1.307-2.133 2.92-2.133 1.616.002 2.926.957 2.927 2.137v7.115l-5.845-.003-.002-7.116zm5.845-4.276l.001 1.072-5.846-.004v-1.072l5.845.004zm-9.681 2.13c.503 0 .913.4.913.892l.002 8.543c.001.49-.41.89-.914.89h-.002c-.501 0-.91-.4-.91-.891l-.002-8.543a.902.902 0 0 1 .91-.891h.003z"/><path class="st14" d="M116.909 61.668c.503 0 .913.4.913.892m0 0l.002 8.543m0 0c.001.49-.41.89-.914.89m0 0h-.002m0 0c-.501 0-.91-.4-.91-.891m0 0l-.002-8.543m0 0a.902.902 0 0 1 .91-.891m0 0h.003"/><path class="st11" d="M115.1 62.38c.29 0 .529.23.53.512l.002 8.587a.523.523 0 0 1-.529.513h-.037a.524.524 0 0 1-.53-.514l-.002-8.586a.523.523 0 0 1 .566-.512z"/><path class="st14" d="M115.1 62.38c.29 0 .529.23.53.512m0 0l.002 8.587m0 0a.523.523 0 0 1-.529.513m0 0h-.037m0 0a.524.524 0 0 1-.53-.514m0 0l-.002-8.586m0 0c0-.283.239-.512.529-.512m0 0h.037"/><path class="st11" d="M118.754 62.382a.52.52 0 0 1 .529.51v.003l.003 8.587a.52.52 0 0 1-.528.512h-.038a.521.521 0 0 1-.527-.513l-.003-8.587a.522.522 0 0 1 .564-.512z"/><path class="st14" d="M118.754 62.382a.52.52 0 0 1 .529.51v.003m0 0l.003 8.587m0 0a.52.52 0 0 1-.528.512h-.001m0 0h-.037m0 0a.521.521 0 0 1-.527-.513m0 0l-.003-8.587m0 0a.522.522 0 0 1 .527-.512m0 0h.037"/><path class="st11" d="M130.424 61.677c.501 0 .914.4.914.891l.003 8.543c0 .491-.412.89-.914.89-.5-.001-.914-.4-.915-.89l-.001-8.544c0-.492.412-.89.913-.89z"/><path class="st14" d="M130.424 61.677c.501 0 .914.4.914.891m0 0l.003 8.543m0 0c0 .491-.413.89-.914.89-.5-.001-.914-.4-.915-.89m0 0l-.001-8.544m0 0c0-.492.413-.89.913-.89"/><path class="st11" d="M128.62 62.388a.52.52 0 0 1 .525.513l.003 8.586a.52.52 0 0 1-.526.513h-.04a.521.521 0 0 1-.53-.512v-.001l-.002-8.586a.52.52 0 0 1 .527-.513h.043z"/><path class="st14" d="M128.62 62.388a.52.52 0 0 1 .525.513m0 0l.003 8.586m0 0a.52.52 0 0 1-.526.513m0 0h-.04m0 0a.521.521 0 0 1-.53-.512v-.001m0 0l-.002-8.586m0 0a.52.52 0 0 1 .527-.513h.001m0 0h.041"/><path class="st11" d="M132.274 62.39c.29 0 .528.23.529.514l.002 8.585c0 .283-.24.513-.529.513h-.04a.524.524 0 0 1-.531-.512l-.003-8.587a.525.525 0 0 1 .53-.513h.042z"/><path class="st14" d="M132.274 62.39c.29 0 .528.23.529.514m0 0l.002 8.585m0 0c0 .283-.24.514-.529.513m0 0h-.04m0 0a.524.524 0 0 1-.531-.512m0 0l-.003-8.587m0 0a.524.524 0 0 1 .53-.512m0 0h.041"/><path class="st7" d="M133.712 72.002l-20.086-.012-.001-1.065 20.086.013.001 1.064z"/><path class="st15" d="M60.48 72.138h-2.56l-.003-14.958 2.558.002.005 14.956z"/><path class="st7" d="M61.202 56.473l-4.019-.003v-1.424l4.019.002v1.425z"/><path class="st15" d="M82.027 72.153l-2.557-.003-.004-14.957 2.557.002.004 14.958z"/><path class="st7" d="M82.755 56.486l-4.017-.002v-1.425l4.016.003.001 1.424z"/><path class="st6" d="M26.14 72.117l87.668.055-87.669-.055h.001z"/><path class="st16" d="M60.47 62.345l18.997.012-18.997-.012zm0-.713l18.997.012-18.997-.012z"/><path class="st13" d="M62.668 84.242l14.611.01m-13.146-.9l11.686.007m-10.228-.892l8.766.005m5.847 3.562l-20.456-.014"/><path class="st11" d="M71.61 47.4c0 .881-.74 1.598-1.644 1.598-.907 0-1.644-.719-1.644-1.6 0-.887.737-1.602 1.643-1.6.905 0 1.645.715 1.646 1.603l-.001-.001z"/><path class="st14" d="M69.966 45.975V47.4l-1.096-.001"/><path class="st17" d="M69.963 36.004l.001 3.561"/><path class="st2" d="M28.388 81.067c.252-.802-.114-1.302-1.63-1.303-1.5-.007-3 .028-4.497.105-1.527.077-3.05.224-4.564.442a46.62 46.62 0 0 0-4.857.967 54.479 54.479 0 0 0-5.386 1.686l2.7 17.148a55.015 55.015 0 0 1 5.151-1.495 47.21 47.21 0 0 1 4.649-.862c1.49-.2 2.932-.321 4.365-.393a85.164 85.164 0 0 1 4.306-.093c1.452 0 1.802.572 1.56 1.474l-1.797-17.676zm81.387 17.726c-.244-.903.106-1.473 1.558-1.473 1.449.002 2.873.027 4.306.098 1.432.075 2.876.2 4.366.4 1.49.2 3.026.483 4.65.868 1.74.417 3.459.918 5.15 1.502l2.691-17.146a54.52 54.52 0 0 0-5.387-1.693c-1.6-.41-3.222-.734-4.857-.972a49.578 49.578 0 0 0-4.564-.448 80.42 80.42 0 0 0-4.498-.11c-1.516-.002-1.88.498-1.628 1.3l-1.787 17.674z"/><path class="st2" d="M35.744 87.196c-.563-.503-1.376-.34-2.334.14-.957.478-2.059 1.273-3.196 2.036-1.134.767-2.308 1.5-3.405 1.855-1.096.353-2.123.325-2.96-.426l1.988 18.5c.807.729 1.787.753 2.835.413 1.053-.343 2.174-1.051 3.263-1.79 1.087-.74 2.139-1.51 3.055-1.973.92-.463 1.694-.622 2.233-.136.536.485.63 1.142.523 1.94l-2.002-20.559zm66.476 20.599c-.11-.798-.016-1.454.52-1.94.538-.484 1.32-.324 2.233.14.917.465 1.972 1.235 3.06 1.976 1.089.74 2.211 1.45 3.259 1.795 1.049.342 2.031.318 2.838-.41l1.982-18.496c-.844.748-1.866.776-2.963.422-1.1-.356-2.271-1.092-3.408-1.86-1.138-.764-2.24-1.56-3.198-2.04-.958-.483-1.77-.646-2.328-.142l-1.995 20.555z"/><path class="st2" d="M36.62 113.975c.055 1.234.389 2.548 1.249 3.91.86 1.365 2.332 2.726 4.294 4.004 1.963 1.278 4.42 2.47 7.255 3.494 2.832 1.024 6.045 1.877 9.506 2.475a65.787 65.787 0 0 0 22.121.014c3.47-.593 6.677-1.441 9.51-2.463 2.831-1.02 5.292-2.209 7.253-3.485 1.965-1.276 3.435-2.635 4.291-3.998.86-1.362 1.194-2.676 1.247-3.91l1.5-19.974c-.055 1-.404 2.08-1.305 3.231-.898 1.154-2.432 2.308-4.485 3.39-2.053 1.079-4.62 2.087-7.581 2.95-2.957.865-6.312 1.583-9.937 2.085-3.622.504-7.516.79-11.557.788-3.867 0-7.73-.268-11.56-.802-3.62-.506-6.977-1.23-9.935-2.097-2.96-.868-5.528-1.88-7.579-2.961-2.054-1.086-3.59-2.24-4.486-3.395-.901-1.152-1.254-2.233-1.308-3.234l1.508 19.978h-.001z"/><path class="st18" d="M132.496 83.042c-7.632-2.818-13.245-3.22-19.306-3.223-6.06-.004 6.286 8.032 2.922 11.04-3.369 3.009-9.654-5.626-11.897-3.62-2.249 2.003 2.918 5.42-.674 10.034-3.59 4.615-17.398 9.223-33.56 9.213-16.165-.01-29.972-4.636-33.56-9.255-3.595-4.618 1.567-8.029-.677-10.035-2.246-2.008-8.53 6.618-11.895 3.605-3.372-3.012 8.973-11.033 2.91-11.037-6.06-.003-11.67.392-19.305 3.2"/><path class="st11" d="M57.88 99.155c0 .88-.148 1.05 1.4 1.236.148.013.378.052.378.301 0 .276-.201.29-.458.29-.822-.001-1.616-.054-2.424-.055-.863 0-1.712.051-2.586.051-.257 0-.46-.014-.46-.289 0-.263.23-.289.378-.302 1.563-.143 1.535-.275 1.535-1.233l-.002-5.291c0-.458.054-.773-.322-.774-.459 0-1.307.418-1.71.418-.163 0-.325-.053-.325-.263 0-.459.796-.51 2.437-.982 1.537-.446 1.644-.694 1.981-.694.27 0 .19.289.19.472l-.014.472.002 6.643zm3.379-4.92c0-1.353 1.13-2.638 3.596-2.637 2.046 0 3.259.856 3.259 2.128 0 1.13-1.117 1.627-2.034 1.825 1.267.328 2.494 1.3 2.494 2.705 0 1.668-1.63 2.926-3.999 2.924-2.062 0-3.665-.959-3.666-2.43 0-1.233.956-1.825 2.25-2.178-.715-.263-1.9-.933-1.9-2.337zm1.603 4.333c0 1.195.796 2.087 1.873 2.088.97 0 1.766-.683 1.765-1.574 0-1.167-1.038-1.641-2.762-2.26-.835.511-.876 1.313-.876 1.746zm3.474-4.619c0-.998-.66-1.825-1.656-1.826-.849-.001-1.509.55-1.51 1.3.001.772.675 1.234 2.386 1.851.674-.38.78-.97.78-1.325zm10.523 3.814c0 1.904-1.564 3.425-3.691 3.423-2.196-.002-3.839-1.88-3.84-4.348 0-3.674 3.42-6.206 6.153-6.77.39-.078.998-.21.998.171 0 .21-.228.263-.364.289-.794.183-4.58 1.416-4.579 5.972.001 1.917.891 4.095 2.132 4.096.645 0 1.17-.473 1.17-1.941 0-1.55-.66-3.14-1.672-3.14-.19 0-.35.08-.47.145-.122.065-.243.13-.378.13a.22.22 0 0 1-.216-.21c0-.381 1.023-.904 1.899-.904 1.887 0 2.858 1.563 2.858 3.087zm7.231-6.166c.23-.026.242.025.189.223l-.458 1.64c-.028.08-.19.106-.27.119l-3.852.404c-.176.013-.284.079-.338.263l-.065.262c-.082.328.362.277.78.278 3.516.04 4.822 1.604 4.822 3.192.001 1.863-1.722 4.133-6.1 4.407-.497.026-.78.038-.78-.262-.002-.265.188-.277.31-.29 3.595-.287 4.43-1.901 4.43-2.858 0-2.102-2.573-2.26-3.894-2.3-.351-.014-.538 0-.633-.105-.108-.118-.068-.277-.027-.408l1.117-4.03 4.768-.535h.001z"/><path class="st5" d="M40.292 109.924c.012-.41-.054-.682-.491-1.005-.183-.137-.395-.195-.389-.373.004-.175.212-.065.303-.019.482.255.967.55 1.456.793.296.148.605.292.907.418.318.139.636.282.957.428.46.227 2.511 1.121 2.48 2.648-.022.887-.897 1.326-2.059.806a5.753 5.753 0 0 1-.851-.502c-.264-.187-.369-.31-.516-.377-.146-.07-.149.006-.151.06-.01.419-.023.836-.032 1.254-.013.435.089.795.684 1.09.1.045.264.129.26.27-.005.178-.213.083-.308.04-.513-.24-1.014-.53-1.52-.78-.49-.244-.981-.45-1.466-.708-.092-.046-.3-.16-.293-.334.006-.182.211-.016.4.043.445.141.522-.055.535-.47l.094-3.282zm1.664 2.157c-.003.162.148.313.205.364.135.117.236.182.39.256.98.452 1.177-.227 1.188-.63a1.923 1.923 0 0 0-1.125-1.747c-.202-.092-.448-.172-.555.046-.05.11-.065.323-.066.418l-.037 1.293zm4.977.813c.006-.283-.013-.74-.655-1.017-.105-.048-.272-.116-.269-.254.003-.179.222-.093.312-.059.605.237.952.39 1.355.547.444.17.892.332 1.339.493 1.181.415 1.515.455 2.523.762.249.074.246.148.246.277-.004.037-.013.074-.013.114-.01.174-.012.346-.01.528-.003.11.007.23.013.344a.4.4 0 0 1-.003.162c-.028.12-.123.104-.198.083-.107-.034-.176-.052-.296-.286-.52-.992-.721-1.08-1.834-1.45-.693-.23-.73-.178-.736.058l-.075 3.634c-.01.467.126.796.766 1.027.103.034.273.097.27.239-.003.177-.224.104-.318.074-.539-.182-1.09-.422-1.629-.618-.51-.185-1.018-.333-1.525-.533-.09-.034-.308-.12-.301-.298.003-.14.17-.073.274-.04.516.18.682-.012.692-.497.025-1.098.047-2.194.072-3.29zm10.994 6.601c.23.49.237.608.65.71.135.023.39.062.39.22-.003.15-.18.145-.413.102-.453-.08-.91-.215-1.36-.305-.517-.105-1.024-.167-1.55-.287-.066-.014-.31-.064-.306-.236 0-.15.177-.123.29-.096l.176.039c.243.045.293-.03.296-.133a.616.616 0 0 0-.056-.253c-.14-.336-.28-.674-.423-1.012-.028-.061-.094-.224-.321-.277a85.074 85.074 0 0 1-1.673-.415c-.21-.055-.251.012-.29.095-.075.15-.148.3-.22.45a.916.916 0 0 0-.085.379c-.006.39.456.577.7.657.182.062.356.092.352.26 0 .167-.176.122-.368.072-.318-.084-.649-.219-.976-.308-.347-.095-.693-.147-1.04-.25-.173-.051-.315-.116-.311-.257.005-.219.346-.021.645-.113.274-.08.425-.354.66-.744.69-1.14 1.38-2.298 2.066-3.464.022-.04.09-.12.149-.134a.638.638 0 0 1 .173-.001l.117.029c.154.045.213.048.29.116a.577.577 0 0 1 .15.224c.756 1.655 1.52 3.302 2.288 4.932zm-3.371-3.803c-.006-.033 0-.055-.035-.07-.003-.003-.006-.003-.009-.003-.019-.006-.032.023-.041.042l-.737 1.284c-.019.039-.047.057-.05.119 0 .116.094.141.201.17.397.1.795.2 1.191.295.117.027.271.06.176-.154l-.696-1.683zm8.404 2.836c.088.144.075.2.167.209.066.007.066-.033.167-.193.327-.531.658-1.065.986-1.603.069-.113.17-.346.17-.466 0-.273-.243-.307-.57-.356-.14-.02-.325-.04-.326-.197.004-.172.19-.151.347-.135.354.034.718.111 1.071.139.277.022.545-.003.82.016.157.01.305.04.302.182 0 .104-.095.16-.224.152l-.129-.008c-.454-.026-.542.156-.96.8-.596.94-1.193 1.869-1.792 2.79-.75 1.143-1.354 1.393-2.239 1.263-.199-.025-1.121-.179-1.112-.854.003-.451.406-.583.79-.525a.91.91 0 0 1 .362.139c.158.108.246.261.344.408.066.104.201.329.41.353.255.034.484-.254.544-.358.06-.102.05-.182-.019-.295-.81-1.263-1.613-2.54-2.41-3.834-.36-.582-.467-.672-.766-.724-.088-.015-.264-.046-.261-.227 0-.148.195-.113.255-.1.504.088.995.214 1.492.288.53.08 1.068.111 1.598.18.145.018.374.036.372.198 0 .132-.152.148-.287.139-.218-.02-.548-.087-.551.169 0 .08.05.205.107.297.444.722.892 1.44 1.342 2.153zm5.868.556c-.1.237-.201.476-.299.712a62.054 62.054 0 0 1-2.447-.108c.1-.234.202-.467.299-.703.815.048 1.63.081 2.447.1v-.001zm5.332.305c.015.024.034.024.043 0 .569-1.127 1.137-2.26 1.7-3.398.069-.14.204-.16.363-.175.342-.03.669-.018.994-.051.331-.038.686-.123 1.026-.165.306-.038.31.076.309.142 0 .137-.135.165-.343.199-.316.045-.597.079-.563.693.053 1.142.107 2.283.165 3.426.022.507.11.725.585.685.196-.022.375-.073.376.083 0 .07-.042.175-.234.218-.06.015-.13.015-.19.024-.442.036-.887.058-1.33.104-.574.061-1.138.158-1.711.201-.2.016-.346.003-.346-.151 0-.138.135-.152.333-.174.416-.044.671-.043.66-.55-.03-1.102-.065-2.207-.1-3.312 0-.03-.025-.046-.047-.012a394.54 394.54 0 0 1-1.733 3.476c-.235.477-.157.387-.273.603-.087.162-.15.196-.34.205-.166.009-.224-.01-.314-.148-.07-.108-.102-.184-.313-.574a463.941 463.941 0 0 1-1.746-3.282c-.01-.016-.02-.025-.031-.026-.01 0-.02.01-.02.026-.04 1.012-.081 2.029-.124 3.042-.01.273.031.712.604.733.17.007.321-.02.42.004.068.024.116.068.116.125 0 .172-.204.194-.347.197-.315.007-.642-.034-.96-.03-.347.002-.693.048-1.043.044-.24-.003-.268-.09-.268-.17 0-.051-.007-.152.3-.15.592.005.614-.286.633-.61.072-1.139.147-2.277.216-3.416.037-.688-.082-.81-.542-.805-.142 0-.398 0-.398-.18 0-.148.222-.146.426-.148.12.003.249.006.365.015.227.015.454.028.685.024.542-.008.718-.06.897-.063.274-.009.315.047.362.136a451.929 451.929 0 0 0 1.739 3.185h-.001zm11.678-4.337c.04.154.119.403-.167.472-.215.052-.325-.11-.54-.273-.46-.332-.686-.513-1.376-.366-1.639.34-2.447 1.77-2.434 2.995.017 1.546 1.096 2.379 2.403 2.107a2.434 2.434 0 0 0 1.387-.862c.113-.148.216-.319.39-.586.075-.138.113-.218.17-.285a.267.267 0 0 1 .163-.102c.281-.07.256.147.23.384-.012.107-.021.218-.034.33-.031.328.007.465-.794.879a5.828 5.828 0 0 1-1.564.564c-3.207.646-4.222-.933-4.229-2.09-.012-1.437 1.467-3.06 4.34-3.657a7.673 7.673 0 0 1 1.625-.174c.272-.003.262.013.347.332.029.111.057.22.083.332zm4.754-.352c.048.042.067.032.11-.038.228-.352.452-.71.679-1.068.238-.378.245-.491.244-.527-.006-.222-.262-.148-.456-.085-.06.022-.302.104-.31-.073-.002-.128.133-.187.349-.257.395-.136.786-.226 1.18-.368.387-.138.768-.328 1.152-.472.262-.102.347-.104.35.028 0 .071-.047.168-.353.295-.503.199-.777.321-1.055.71-.49.71-.985 1.41-1.486 2.105.65.505 1.305 1.003 1.966 1.494.549.415.684.452.889.405.16-.036.32-.107.324.047.006.182-.174.243-.41.334-.535.203-1.083.362-1.622.552-.453.16-.92.364-1.373.511-.172.06-.286.081-.289-.062-.003-.08.015-.161.283-.253.152-.05.485-.163.48-.39-.005-.095-.08-.156-.15-.218-.406-.336-.816-.673-1.225-1.017-.04-.025-.04-.027-.078.024l-.917 1.348c-.255.362-.296.524-.296.62.007.257.274.227.57.132.334-.11.375-.016.378.05.003.162-.161.214-.4.284-.432.129-.857.205-1.291.325-.7.194-.11.083-1.115.346-.079.022-.28.065-.28-.092-.003-.172.236-.214.4-.276.589-.209 1.08-.76 1.49-1.34.39-.56.78-1.124 1.17-1.692-.576-.43-1.152-.869-1.729-1.315-.74-.58-.97-.442-1.28-.39-.056.007-.19.027-.194-.123-.004-.14.174-.2.248-.217.07-.019.127-.034.193-.05.576-.138 1.162-.266 1.744-.435.517-.15 1.021-.35 1.534-.512.274-.085.306-.006.309.074 0 .172-.17.197-.39.283-.214.081-.389.15-.384.337.003.07.069.15.116.193.309.26.617.517.925.772v.001z"/><path class="st5" d="M100.174 113.443c.228.332.239.445.621.268.126-.066.36-.196.362-.038.004.15-.156.262-.372.376-.412.216-.84.388-1.256.597-.482.243-.954.515-1.449.749-.063.027-.296.144-.3-.028-.002-.149.161-.24.272-.292.054-.025.11-.052.167-.077.226-.116.27-.223.267-.328a.36.36 0 0 0-.063-.212l-.435-.716c-.028-.043-.095-.16-.308-.06-.526.242-1.059.48-1.593.707-.203.089-.237.182-.272.289-.062.2-.128.395-.192.592a1.279 1.279 0 0 0-.066.429c.012.39.46.264.69.183.177-.062.344-.15.346.018.007.165-.16.24-.345.319-.307.132-.625.217-.943.35-.333.14-.668.318-1.005.452-.17.066-.308.096-.311-.042-.006-.221.333-.257.617-.549.26-.261.393-.632.604-1.176.614-1.59 1.218-3.192 1.821-4.8a.848.848 0 0 1 .132-.234.985.985 0 0 1 .164-.113l.11-.052c.147-.057.2-.091.277-.08.074.014.12.071.15.12.764 1.12 1.534 2.236 2.31 3.348zm-3.282-1.51c-.009-.024 0-.055-.038-.046-.003 0-.007.003-.007.003-.019.01-.027.047-.038.07-.213.588-.427 1.173-.644 1.76-.02.052-.045.089-.042.15.004.117.096.077.195.035.38-.166.756-.334 1.134-.506.108-.05.259-.12.161-.27-.242-.396-.482-.796-.721-1.195v-.001z"/></svg>